<mxfile host="Electron" modified="2024-04-26T14:04:31.634Z" agent="Mozilla/5.0 (Windows NT 10.0; Win64; x64) AppleWebKit/537.36 (KHTML, like Gecko) draw.io/22.0.2 Chrome/114.0.5735.289 Electron/25.8.4 Safari/537.36" etag="JigCU-KlhTxegsqwacrl" version="22.0.2" type="device">
  <diagram name="第 1 页" id="Swf7uyS4yp4CafleX0ra">
    <mxGraphModel dx="2375" dy="902" grid="1" gridSize="10" guides="1" tooltips="1" connect="1" arrows="1" fold="1" page="1" pageScale="1" pageWidth="827" pageHeight="1169" math="0" shadow="0">
      <root>
        <mxCell id="0" />
        <mxCell id="1" parent="0" />
        <mxCell id="XQVcX5hq3e3qukLkaY1j-18" value="" style="rounded=0;whiteSpace=wrap;html=1;fillColor=none;shadow=0;" parent="1" vertex="1">
          <mxGeometry x="110" y="150" width="590" height="100" as="geometry" />
        </mxCell>
        <mxCell id="XQVcX5hq3e3qukLkaY1j-9" value="" style="rounded=1;whiteSpace=wrap;html=1;fillColor=none;dashed=1;dashPattern=8 8;shadow=0;" parent="1" vertex="1">
          <mxGeometry x="110" y="285" width="590" height="90" as="geometry" />
        </mxCell>
        <mxCell id="XQVcX5hq3e3qukLkaY1j-11" value="" style="rounded=1;whiteSpace=wrap;html=1;fillColor=none;strokeColor=#b85450;strokeWidth=5;dashed=1;shadow=0;" parent="1" vertex="1">
          <mxGeometry x="420" y="70" width="80" height="50" as="geometry" />
        </mxCell>
        <mxCell id="XQVcX5hq3e3qukLkaY1j-10" value="" style="rounded=1;whiteSpace=wrap;html=1;fillColor=none;dashed=1;dashPattern=8 8;shadow=0;" parent="1" vertex="1">
          <mxGeometry x="110" y="403" width="590" height="90" as="geometry" />
        </mxCell>
        <mxCell id="XQVcX5hq3e3qukLkaY1j-1" value="&lt;font size=&quot;1&quot; style=&quot;&quot;&gt;&lt;b style=&quot;font-size: 25px;&quot;&gt;A1&lt;/b&gt;&lt;/font&gt;" style="rounded=1;whiteSpace=wrap;html=1;fillColor=#fff2cc;strokeColor=#d6b656;shadow=0;" parent="1" vertex="1">
          <mxGeometry x="130" y="300" width="120" height="60" as="geometry" />
        </mxCell>
        <mxCell id="XQVcX5hq3e3qukLkaY1j-2" value="&lt;b style=&quot;border-color: var(--border-color); font-size: 25px;&quot;&gt;B1&lt;/b&gt;" style="rounded=1;whiteSpace=wrap;html=1;fillColor=#dae8fc;strokeColor=#6c8ebf;shadow=0;" parent="1" vertex="1">
          <mxGeometry x="130" y="418" width="120" height="60" as="geometry" />
        </mxCell>
        <mxCell id="XQVcX5hq3e3qukLkaY1j-3" value="&lt;b style=&quot;border-color: var(--border-color); font-size: 25px;&quot;&gt;A2&lt;/b&gt;" style="rounded=1;whiteSpace=wrap;html=1;fillColor=#fff2cc;strokeColor=#d6b656;shadow=0;" parent="1" vertex="1">
          <mxGeometry x="270" y="300" width="120" height="60" as="geometry" />
        </mxCell>
        <mxCell id="XQVcX5hq3e3qukLkaY1j-4" value="&lt;b style=&quot;border-color: var(--border-color); font-size: 25px;&quot;&gt;A3&lt;/b&gt;" style="rounded=1;whiteSpace=wrap;html=1;fillColor=#fff2cc;strokeColor=#d6b656;shadow=0;" parent="1" vertex="1">
          <mxGeometry x="413.5" y="300" width="120" height="60" as="geometry" />
        </mxCell>
        <mxCell id="XQVcX5hq3e3qukLkaY1j-5" value="&lt;b style=&quot;border-color: var(--border-color); font-size: 25px;&quot;&gt;A4&lt;/b&gt;" style="rounded=1;whiteSpace=wrap;html=1;fillColor=#fff2cc;strokeColor=#d6b656;shadow=0;" parent="1" vertex="1">
          <mxGeometry x="560" y="300" width="120" height="60" as="geometry" />
        </mxCell>
        <mxCell id="XQVcX5hq3e3qukLkaY1j-6" value="&lt;b style=&quot;border-color: var(--border-color); font-size: 25px;&quot;&gt;B2&lt;/b&gt;" style="rounded=1;whiteSpace=wrap;html=1;fillColor=#dae8fc;strokeColor=#6c8ebf;shadow=0;" parent="1" vertex="1">
          <mxGeometry x="270" y="418" width="120" height="60" as="geometry" />
        </mxCell>
        <mxCell id="XQVcX5hq3e3qukLkaY1j-7" value="&lt;b style=&quot;border-color: var(--border-color); font-size: 25px;&quot;&gt;B3&lt;/b&gt;" style="rounded=1;whiteSpace=wrap;html=1;fillColor=#dae8fc;strokeColor=#6c8ebf;shadow=0;" parent="1" vertex="1">
          <mxGeometry x="414" y="418" width="120" height="60" as="geometry" />
        </mxCell>
        <mxCell id="XQVcX5hq3e3qukLkaY1j-8" value="&lt;b style=&quot;border-color: var(--border-color); font-size: 25px;&quot;&gt;B4&lt;/b&gt;" style="rounded=1;whiteSpace=wrap;html=1;fillColor=#dae8fc;strokeColor=#6c8ebf;shadow=0;" parent="1" vertex="1">
          <mxGeometry x="560" y="418" width="120" height="60" as="geometry" />
        </mxCell>
        <mxCell id="XQVcX5hq3e3qukLkaY1j-12" value="&lt;font size=&quot;1&quot; style=&quot;&quot;&gt;&lt;b style=&quot;font-size: 25px;&quot;&gt;A1&lt;/b&gt;&lt;/font&gt;" style="rounded=1;whiteSpace=wrap;html=1;fillColor=#fff2cc;strokeColor=#d6b656;shadow=0;" parent="1" vertex="1">
          <mxGeometry x="110" y="70" width="80" height="50" as="geometry" />
        </mxCell>
        <mxCell id="XQVcX5hq3e3qukLkaY1j-13" value="&lt;b&gt;&lt;font style=&quot;font-size: 25px;&quot;&gt;Operator&lt;/font&gt;&lt;/b&gt;" style="text;strokeColor=none;align=center;fillColor=none;html=1;verticalAlign=middle;whiteSpace=wrap;rounded=0;shadow=0;" parent="1" vertex="1">
          <mxGeometry x="240" y="80" width="60" height="30" as="geometry" />
        </mxCell>
        <mxCell id="XQVcX5hq3e3qukLkaY1j-14" value="" style="rounded=1;whiteSpace=wrap;html=1;fillColor=none;strokeColor=#b85450;strokeWidth=5;dashed=1;shadow=0;" parent="1" vertex="1">
          <mxGeometry x="95" y="270" width="620" height="120" as="geometry" />
        </mxCell>
        <mxCell id="XQVcX5hq3e3qukLkaY1j-15" value="&lt;b&gt;&lt;font style=&quot;font-size: 25px;&quot;&gt;Concurrent Inference Segment&lt;/font&gt;&lt;/b&gt;" style="text;strokeColor=none;align=center;fillColor=none;html=1;verticalAlign=middle;whiteSpace=wrap;rounded=0;shadow=0;" parent="1" vertex="1">
          <mxGeometry x="520" y="80" width="250" height="30" as="geometry" />
        </mxCell>
        <mxCell id="XQVcX5hq3e3qukLkaY1j-16" value="&lt;b&gt;&lt;font style=&quot;font-size: 25px;&quot;&gt;Margin befor Deadline:&lt;/font&gt;&lt;/b&gt;" style="text;strokeColor=none;align=center;fillColor=none;html=1;verticalAlign=middle;whiteSpace=wrap;rounded=0;shadow=0;" parent="1" vertex="1">
          <mxGeometry x="150" y="160" width="490" height="30" as="geometry" />
        </mxCell>
        <mxCell id="XQVcX5hq3e3qukLkaY1j-17" value="&lt;b&gt;&lt;font style=&quot;font-size: 25px;&quot;&gt;&lt;font color=&quot;#cc0000&quot;&gt;A: 40ms&lt;/font&gt;&amp;nbsp; &amp;nbsp; &amp;nbsp; &amp;nbsp; &amp;nbsp; B: 60ms&lt;/font&gt;&lt;/b&gt;" style="text;strokeColor=none;align=center;fillColor=none;html=1;verticalAlign=middle;whiteSpace=wrap;rounded=0;shadow=0;" parent="1" vertex="1">
          <mxGeometry x="140" y="210" width="490" height="30" as="geometry" />
        </mxCell>
        <mxCell id="XQVcX5hq3e3qukLkaY1j-19" value="&lt;b&gt;&lt;font style=&quot;font-size: 30px;&quot;&gt;Model B&lt;/font&gt;&lt;/b&gt;" style="text;strokeColor=none;align=center;fillColor=none;html=1;verticalAlign=middle;whiteSpace=wrap;rounded=0;shadow=0;" parent="1" vertex="1">
          <mxGeometry x="-50" y="433" width="120" height="30" as="geometry" />
        </mxCell>
        <mxCell id="XQVcX5hq3e3qukLkaY1j-20" value="&lt;b&gt;&lt;font style=&quot;font-size: 30px;&quot;&gt;Model A&lt;/font&gt;&lt;/b&gt;" style="text;strokeColor=none;align=center;fillColor=none;html=1;verticalAlign=middle;whiteSpace=wrap;rounded=0;shadow=0;" parent="1" vertex="1">
          <mxGeometry x="-50" y="310" width="120" height="30" as="geometry" />
        </mxCell>
        <mxCell id="XQVcX5hq3e3qukLkaY1j-22" value="&lt;b&gt;&lt;font style=&quot;font-size: 30px;&quot;&gt;Margin of A:&lt;br&gt;40 - 20 = &lt;font color=&quot;#009900&quot;&gt;20ms&lt;/font&gt;&lt;br&gt;&lt;/font&gt;&lt;/b&gt;" style="text;strokeColor=none;align=center;fillColor=none;html=1;verticalAlign=middle;whiteSpace=wrap;rounded=0;shadow=0;" parent="1" vertex="1">
          <mxGeometry x="680" y="403" width="360" height="30" as="geometry" />
        </mxCell>
        <mxCell id="XQVcX5hq3e3qukLkaY1j-23" value="&lt;b&gt;&lt;font style=&quot;font-size: 30px;&quot;&gt;Cost = 20ms&lt;/font&gt;&lt;/b&gt;" style="text;strokeColor=none;align=center;fillColor=none;html=1;verticalAlign=middle;whiteSpace=wrap;rounded=0;shadow=0;" parent="1" vertex="1">
          <mxGeometry x="670" y="300" width="360" height="30" as="geometry" />
        </mxCell>
        <mxCell id="XQVcX5hq3e3qukLkaY1j-37" value="" style="endArrow=none;dashed=1;html=1;dashPattern=1 3;strokeWidth=2;rounded=0;shadow=0;" parent="1" edge="1">
          <mxGeometry width="50" height="50" relative="1" as="geometry">
            <mxPoint x="-60" y="520" as="sourcePoint" />
            <mxPoint x="760" y="520" as="targetPoint" />
          </mxGeometry>
        </mxCell>
        <mxCell id="XQVcX5hq3e3qukLkaY1j-38" value="" style="shape=flexArrow;endArrow=classic;html=1;rounded=0;width=45;endSize=9.07;endWidth=42;shadow=0;" parent="1" edge="1">
          <mxGeometry width="50" height="50" relative="1" as="geometry">
            <mxPoint x="840" y="495" as="sourcePoint" />
            <mxPoint x="840" y="565" as="targetPoint" />
          </mxGeometry>
        </mxCell>
        <mxCell id="XQVcX5hq3e3qukLkaY1j-39" value="&lt;b&gt;&lt;font style=&quot;font-size: 30px;&quot;&gt;Add B1 &amp;amp; B2&lt;/font&gt;&lt;/b&gt;" style="text;strokeColor=none;align=center;fillColor=none;html=1;verticalAlign=middle;whiteSpace=wrap;rounded=0;shadow=0;" parent="1" vertex="1">
          <mxGeometry x="820" y="510" width="360" height="30" as="geometry" />
        </mxCell>
        <mxCell id="XQVcX5hq3e3qukLkaY1j-42" value="" style="group" parent="1" vertex="1" connectable="0">
          <mxGeometry x="-50" y="550" width="800" height="250" as="geometry" />
        </mxCell>
        <mxCell id="XQVcX5hq3e3qukLkaY1j-111" value="" style="rounded=1;whiteSpace=wrap;html=1;fillColor=#d5e8d4;strokeColor=#82b366;" parent="XQVcX5hq3e3qukLkaY1j-42" vertex="1">
          <mxGeometry x="-10" y="-20" width="810" height="270" as="geometry" />
        </mxCell>
        <mxCell id="XQVcX5hq3e3qukLkaY1j-24" value="" style="rounded=1;whiteSpace=wrap;html=1;fillColor=none;dashed=1;dashPattern=8 8;shadow=0;" parent="XQVcX5hq3e3qukLkaY1j-42" vertex="1">
          <mxGeometry x="160" y="15" width="590" height="90" as="geometry" />
        </mxCell>
        <mxCell id="XQVcX5hq3e3qukLkaY1j-25" value="" style="rounded=1;whiteSpace=wrap;html=1;fillColor=none;dashed=1;dashPattern=8 8;shadow=0;" parent="XQVcX5hq3e3qukLkaY1j-42" vertex="1">
          <mxGeometry x="160" y="133" width="590" height="90" as="geometry" />
        </mxCell>
        <mxCell id="XQVcX5hq3e3qukLkaY1j-26" value="&lt;font size=&quot;1&quot; style=&quot;&quot;&gt;&lt;b style=&quot;font-size: 25px;&quot;&gt;A1&lt;/b&gt;&lt;/font&gt;" style="rounded=1;whiteSpace=wrap;html=1;fillColor=#fff2cc;strokeColor=#d6b656;shadow=0;" parent="XQVcX5hq3e3qukLkaY1j-42" vertex="1">
          <mxGeometry x="180" y="30" width="120" height="60" as="geometry" />
        </mxCell>
        <mxCell id="XQVcX5hq3e3qukLkaY1j-27" value="&lt;b style=&quot;border-color: var(--border-color); font-size: 25px;&quot;&gt;B1&lt;/b&gt;" style="rounded=1;whiteSpace=wrap;html=1;fillColor=#dae8fc;strokeColor=#6c8ebf;shadow=0;" parent="XQVcX5hq3e3qukLkaY1j-42" vertex="1">
          <mxGeometry x="180" y="148" width="120" height="60" as="geometry" />
        </mxCell>
        <mxCell id="XQVcX5hq3e3qukLkaY1j-28" value="&lt;b style=&quot;border-color: var(--border-color); font-size: 25px;&quot;&gt;A2&lt;/b&gt;" style="rounded=1;whiteSpace=wrap;html=1;fillColor=#fff2cc;strokeColor=#d6b656;shadow=0;" parent="XQVcX5hq3e3qukLkaY1j-42" vertex="1">
          <mxGeometry x="320" y="30" width="120" height="60" as="geometry" />
        </mxCell>
        <mxCell id="XQVcX5hq3e3qukLkaY1j-29" value="&lt;b style=&quot;border-color: var(--border-color); font-size: 25px;&quot;&gt;A3&lt;/b&gt;" style="rounded=1;whiteSpace=wrap;html=1;fillColor=#fff2cc;strokeColor=#d6b656;shadow=0;" parent="XQVcX5hq3e3qukLkaY1j-42" vertex="1">
          <mxGeometry x="463.5" y="30" width="120" height="60" as="geometry" />
        </mxCell>
        <mxCell id="XQVcX5hq3e3qukLkaY1j-30" value="&lt;b style=&quot;border-color: var(--border-color); font-size: 25px;&quot;&gt;A4&lt;/b&gt;" style="rounded=1;whiteSpace=wrap;html=1;fillColor=#fff2cc;strokeColor=#d6b656;shadow=0;" parent="XQVcX5hq3e3qukLkaY1j-42" vertex="1">
          <mxGeometry x="610" y="30" width="120" height="60" as="geometry" />
        </mxCell>
        <mxCell id="XQVcX5hq3e3qukLkaY1j-31" value="&lt;b style=&quot;border-color: var(--border-color); font-size: 25px;&quot;&gt;B2&lt;/b&gt;" style="rounded=1;whiteSpace=wrap;html=1;fillColor=#dae8fc;strokeColor=#6c8ebf;shadow=0;" parent="XQVcX5hq3e3qukLkaY1j-42" vertex="1">
          <mxGeometry x="320" y="148" width="120" height="60" as="geometry" />
        </mxCell>
        <mxCell id="XQVcX5hq3e3qukLkaY1j-32" value="&lt;b style=&quot;border-color: var(--border-color); font-size: 25px;&quot;&gt;B3&lt;/b&gt;" style="rounded=1;whiteSpace=wrap;html=1;fillColor=#dae8fc;strokeColor=#6c8ebf;shadow=0;" parent="XQVcX5hq3e3qukLkaY1j-42" vertex="1">
          <mxGeometry x="464" y="148" width="120" height="60" as="geometry" />
        </mxCell>
        <mxCell id="XQVcX5hq3e3qukLkaY1j-33" value="&lt;b style=&quot;border-color: var(--border-color); font-size: 25px;&quot;&gt;B4&lt;/b&gt;" style="rounded=1;whiteSpace=wrap;html=1;fillColor=#dae8fc;strokeColor=#6c8ebf;shadow=0;" parent="XQVcX5hq3e3qukLkaY1j-42" vertex="1">
          <mxGeometry x="610" y="148" width="120" height="60" as="geometry" />
        </mxCell>
        <mxCell id="XQVcX5hq3e3qukLkaY1j-34" value="" style="rounded=1;whiteSpace=wrap;html=1;fillColor=none;strokeColor=#b85450;strokeWidth=5;dashed=1;shadow=0;" parent="XQVcX5hq3e3qukLkaY1j-42" vertex="1">
          <mxGeometry x="145" width="620" height="120" as="geometry" />
        </mxCell>
        <mxCell id="XQVcX5hq3e3qukLkaY1j-35" value="&lt;b&gt;&lt;font style=&quot;font-size: 30px;&quot;&gt;Model B&lt;/font&gt;&lt;/b&gt;" style="text;strokeColor=none;align=center;fillColor=none;html=1;verticalAlign=middle;whiteSpace=wrap;rounded=0;shadow=0;" parent="XQVcX5hq3e3qukLkaY1j-42" vertex="1">
          <mxGeometry y="163" width="120" height="30" as="geometry" />
        </mxCell>
        <mxCell id="XQVcX5hq3e3qukLkaY1j-36" value="&lt;b&gt;&lt;font style=&quot;font-size: 30px;&quot;&gt;Model A&lt;/font&gt;&lt;/b&gt;" style="text;strokeColor=none;align=center;fillColor=none;html=1;verticalAlign=middle;whiteSpace=wrap;rounded=0;shadow=0;" parent="XQVcX5hq3e3qukLkaY1j-42" vertex="1">
          <mxGeometry y="40" width="120" height="30" as="geometry" />
        </mxCell>
        <mxCell id="XQVcX5hq3e3qukLkaY1j-40" value="" style="rounded=1;whiteSpace=wrap;html=1;fillColor=none;strokeColor=#b85450;strokeWidth=5;dashed=1;shadow=0;" parent="XQVcX5hq3e3qukLkaY1j-42" vertex="1">
          <mxGeometry x="145" y="120" width="310" height="120" as="geometry" />
        </mxCell>
        <mxCell id="XQVcX5hq3e3qukLkaY1j-41" value="" style="rounded=1;whiteSpace=wrap;html=1;strokeColor=none;fillColor=#d8e7d5;" parent="XQVcX5hq3e3qukLkaY1j-42" vertex="1">
          <mxGeometry x="145" y="116" width="315" height="17" as="geometry" />
        </mxCell>
        <mxCell id="XQVcX5hq3e3qukLkaY1j-43" value="&lt;b&gt;&lt;font style=&quot;font-size: 30px;&quot;&gt;Cost = 38ms&lt;/font&gt;&lt;/b&gt;" style="text;strokeColor=none;align=center;fillColor=none;html=1;verticalAlign=middle;whiteSpace=wrap;rounded=0;shadow=0;" parent="1" vertex="1">
          <mxGeometry x="670" y="600" width="360" height="30" as="geometry" />
        </mxCell>
        <mxCell id="XQVcX5hq3e3qukLkaY1j-44" value="&lt;b&gt;&lt;font style=&quot;font-size: 30px;&quot;&gt;Margin of A:&lt;br&gt;40 - 38 = &lt;font color=&quot;#009900&quot;&gt;2ms&lt;/font&gt;&lt;br&gt;&lt;/font&gt;&lt;/b&gt;" style="text;strokeColor=none;align=center;fillColor=none;html=1;verticalAlign=middle;whiteSpace=wrap;rounded=0;shadow=0;" parent="1" vertex="1">
          <mxGeometry x="680" y="690" width="360" height="30" as="geometry" />
        </mxCell>
        <mxCell id="XQVcX5hq3e3qukLkaY1j-87" value="" style="endArrow=none;dashed=1;html=1;dashPattern=1 3;strokeWidth=2;rounded=0;shadow=0;" parent="1" edge="1">
          <mxGeometry width="50" height="50" relative="1" as="geometry">
            <mxPoint x="-60" y="815" as="sourcePoint" />
            <mxPoint x="760" y="815" as="targetPoint" />
          </mxGeometry>
        </mxCell>
        <mxCell id="XQVcX5hq3e3qukLkaY1j-88" value="" style="shape=flexArrow;endArrow=classic;html=1;rounded=0;width=45;endSize=9.07;endWidth=42;shadow=0;" parent="1" edge="1">
          <mxGeometry width="50" height="50" relative="1" as="geometry">
            <mxPoint x="840" y="790" as="sourcePoint" />
            <mxPoint x="840" y="860" as="targetPoint" />
          </mxGeometry>
        </mxCell>
        <mxCell id="XQVcX5hq3e3qukLkaY1j-89" value="&lt;b&gt;&lt;font style=&quot;font-size: 30px;&quot;&gt;Add B3&lt;/font&gt;&lt;/b&gt;" style="text;strokeColor=none;align=center;fillColor=none;html=1;verticalAlign=middle;whiteSpace=wrap;rounded=0;shadow=0;" parent="1" vertex="1">
          <mxGeometry x="820" y="805" width="360" height="30" as="geometry" />
        </mxCell>
        <mxCell id="XQVcX5hq3e3qukLkaY1j-90" value="" style="group" parent="1" vertex="1" connectable="0">
          <mxGeometry x="-50" y="845" width="800" height="255" as="geometry" />
        </mxCell>
        <mxCell id="XQVcX5hq3e3qukLkaY1j-112" value="" style="rounded=1;whiteSpace=wrap;html=1;fillColor=#f8cecc;strokeColor=#b85450;" parent="XQVcX5hq3e3qukLkaY1j-90" vertex="1">
          <mxGeometry x="-10" y="-15" width="810" height="270" as="geometry" />
        </mxCell>
        <mxCell id="XQVcX5hq3e3qukLkaY1j-91" value="" style="rounded=1;whiteSpace=wrap;html=1;fillColor=none;dashed=1;dashPattern=8 8;shadow=0;" parent="XQVcX5hq3e3qukLkaY1j-90" vertex="1">
          <mxGeometry x="160" y="15" width="590" height="90" as="geometry" />
        </mxCell>
        <mxCell id="XQVcX5hq3e3qukLkaY1j-92" value="" style="rounded=1;whiteSpace=wrap;html=1;fillColor=none;dashed=1;dashPattern=8 8;shadow=0;" parent="XQVcX5hq3e3qukLkaY1j-90" vertex="1">
          <mxGeometry x="160" y="133" width="590" height="90" as="geometry" />
        </mxCell>
        <mxCell id="XQVcX5hq3e3qukLkaY1j-93" value="&lt;font size=&quot;1&quot; style=&quot;&quot;&gt;&lt;b style=&quot;font-size: 25px;&quot;&gt;A1&lt;/b&gt;&lt;/font&gt;" style="rounded=1;whiteSpace=wrap;html=1;fillColor=#fff2cc;strokeColor=#d6b656;shadow=0;" parent="XQVcX5hq3e3qukLkaY1j-90" vertex="1">
          <mxGeometry x="180" y="30" width="120" height="60" as="geometry" />
        </mxCell>
        <mxCell id="XQVcX5hq3e3qukLkaY1j-94" value="&lt;b style=&quot;border-color: var(--border-color); font-size: 25px;&quot;&gt;B1&lt;/b&gt;" style="rounded=1;whiteSpace=wrap;html=1;fillColor=#dae8fc;strokeColor=#6c8ebf;shadow=0;" parent="XQVcX5hq3e3qukLkaY1j-90" vertex="1">
          <mxGeometry x="180" y="148" width="120" height="60" as="geometry" />
        </mxCell>
        <mxCell id="XQVcX5hq3e3qukLkaY1j-95" value="&lt;b style=&quot;border-color: var(--border-color); font-size: 25px;&quot;&gt;A2&lt;/b&gt;" style="rounded=1;whiteSpace=wrap;html=1;fillColor=#fff2cc;strokeColor=#d6b656;shadow=0;" parent="XQVcX5hq3e3qukLkaY1j-90" vertex="1">
          <mxGeometry x="320" y="30" width="120" height="60" as="geometry" />
        </mxCell>
        <mxCell id="XQVcX5hq3e3qukLkaY1j-96" value="&lt;b style=&quot;border-color: var(--border-color); font-size: 25px;&quot;&gt;A3&lt;/b&gt;" style="rounded=1;whiteSpace=wrap;html=1;fillColor=#fff2cc;strokeColor=#d6b656;shadow=0;" parent="XQVcX5hq3e3qukLkaY1j-90" vertex="1">
          <mxGeometry x="463.5" y="30" width="120" height="60" as="geometry" />
        </mxCell>
        <mxCell id="XQVcX5hq3e3qukLkaY1j-97" value="&lt;b style=&quot;border-color: var(--border-color); font-size: 25px;&quot;&gt;A4&lt;/b&gt;" style="rounded=1;whiteSpace=wrap;html=1;fillColor=#fff2cc;strokeColor=#d6b656;shadow=0;" parent="XQVcX5hq3e3qukLkaY1j-90" vertex="1">
          <mxGeometry x="610" y="30" width="120" height="60" as="geometry" />
        </mxCell>
        <mxCell id="XQVcX5hq3e3qukLkaY1j-98" value="&lt;b style=&quot;border-color: var(--border-color); font-size: 25px;&quot;&gt;B2&lt;/b&gt;" style="rounded=1;whiteSpace=wrap;html=1;fillColor=#dae8fc;strokeColor=#6c8ebf;shadow=0;" parent="XQVcX5hq3e3qukLkaY1j-90" vertex="1">
          <mxGeometry x="320" y="148" width="120" height="60" as="geometry" />
        </mxCell>
        <mxCell id="XQVcX5hq3e3qukLkaY1j-99" value="&lt;b style=&quot;border-color: var(--border-color); font-size: 25px;&quot;&gt;B3&lt;/b&gt;" style="rounded=1;whiteSpace=wrap;html=1;fillColor=#dae8fc;strokeColor=#6c8ebf;shadow=0;" parent="XQVcX5hq3e3qukLkaY1j-90" vertex="1">
          <mxGeometry x="464" y="148" width="120" height="60" as="geometry" />
        </mxCell>
        <mxCell id="XQVcX5hq3e3qukLkaY1j-100" value="&lt;b style=&quot;border-color: var(--border-color); font-size: 25px;&quot;&gt;B4&lt;/b&gt;" style="rounded=1;whiteSpace=wrap;html=1;fillColor=#dae8fc;strokeColor=#6c8ebf;shadow=0;" parent="XQVcX5hq3e3qukLkaY1j-90" vertex="1">
          <mxGeometry x="610" y="148" width="120" height="60" as="geometry" />
        </mxCell>
        <mxCell id="XQVcX5hq3e3qukLkaY1j-101" value="" style="rounded=1;whiteSpace=wrap;html=1;fillColor=none;strokeColor=#b85450;strokeWidth=5;dashed=1;shadow=0;" parent="XQVcX5hq3e3qukLkaY1j-90" vertex="1">
          <mxGeometry x="145" width="620" height="120" as="geometry" />
        </mxCell>
        <mxCell id="XQVcX5hq3e3qukLkaY1j-102" value="&lt;b&gt;&lt;font style=&quot;font-size: 30px;&quot;&gt;Model B&lt;/font&gt;&lt;/b&gt;" style="text;strokeColor=none;align=center;fillColor=none;html=1;verticalAlign=middle;whiteSpace=wrap;rounded=0;shadow=0;" parent="XQVcX5hq3e3qukLkaY1j-90" vertex="1">
          <mxGeometry y="163" width="120" height="30" as="geometry" />
        </mxCell>
        <mxCell id="XQVcX5hq3e3qukLkaY1j-103" value="&lt;b&gt;&lt;font style=&quot;font-size: 30px;&quot;&gt;Model A&lt;/font&gt;&lt;/b&gt;" style="text;strokeColor=none;align=center;fillColor=none;html=1;verticalAlign=middle;whiteSpace=wrap;rounded=0;shadow=0;" parent="XQVcX5hq3e3qukLkaY1j-90" vertex="1">
          <mxGeometry y="40" width="120" height="30" as="geometry" />
        </mxCell>
        <mxCell id="XQVcX5hq3e3qukLkaY1j-104" value="" style="rounded=1;whiteSpace=wrap;html=1;fillColor=none;strokeColor=#b85450;strokeWidth=5;dashed=1;shadow=0;" parent="XQVcX5hq3e3qukLkaY1j-90" vertex="1">
          <mxGeometry x="145" y="120" width="455" height="120" as="geometry" />
        </mxCell>
        <mxCell id="XQVcX5hq3e3qukLkaY1j-105" value="" style="rounded=1;whiteSpace=wrap;html=1;strokeColor=none;fillColor=#f2d0cd;" parent="XQVcX5hq3e3qukLkaY1j-90" vertex="1">
          <mxGeometry x="145" y="116" width="455" height="17" as="geometry" />
        </mxCell>
        <mxCell id="XQVcX5hq3e3qukLkaY1j-106" value="&lt;b&gt;&lt;font style=&quot;font-size: 30px;&quot;&gt;Cost = 45ms&lt;/font&gt;&lt;/b&gt;" style="text;strokeColor=none;align=center;fillColor=none;html=1;verticalAlign=middle;whiteSpace=wrap;rounded=0;shadow=0;" parent="1" vertex="1">
          <mxGeometry x="670" y="895" width="360" height="30" as="geometry" />
        </mxCell>
        <mxCell id="XQVcX5hq3e3qukLkaY1j-107" value="&lt;b&gt;&lt;font style=&quot;font-size: 30px;&quot;&gt;Margin of A:&lt;br&gt;40 - 45 = &lt;font color=&quot;#cc0000&quot;&gt;-5ms&lt;/font&gt;&lt;br&gt;&lt;/font&gt;&lt;/b&gt;" style="text;strokeColor=none;align=center;fillColor=none;html=1;verticalAlign=middle;whiteSpace=wrap;rounded=0;shadow=0;" parent="1" vertex="1">
          <mxGeometry x="680" y="985" width="360" height="30" as="geometry" />
        </mxCell>
      </root>
    </mxGraphModel>
  </diagram>
</mxfile>
